<svg width="320" height="153" viewBox="0 0 320 153" fill="none" xmlns="http://www.w3.org/2000/svg">
<rect y="31.625" width="34.244" height="100.039" rx="9.23434" fill="white" fill-opacity="0.08"/>
<rect x="0.384764" y="32.0098" width="33.4745" height="99.2692" rx="8.84958" stroke="white" stroke-opacity="0.08" stroke-width="0.769528"/>
<path d="M10.9348 124.811V119.214H14.5201V120.064H11.9486V121.583H14.2742V122.433H11.9486V124.811H10.9348ZM16.7963 124.893C16.3754 124.893 16.012 124.805 15.7059 124.63C15.4017 124.453 15.1676 124.204 15.0036 123.881C14.8397 123.557 14.7577 123.175 14.7577 122.736C14.7577 122.305 14.8397 121.926 15.0036 121.6C15.1694 121.272 15.4008 121.017 15.6977 120.834C15.9947 120.65 16.3436 120.558 16.7443 120.558C17.003 120.558 17.2472 120.6 17.4767 120.684C17.7081 120.766 17.9121 120.894 18.0888 121.067C18.2674 121.24 18.4076 121.46 18.5097 121.728C18.6117 121.994 18.6627 122.311 18.6627 122.679V122.982H15.2222V122.316H17.7145C17.7126 122.126 17.6716 121.958 17.5915 121.81C17.5113 121.661 17.3993 121.543 17.2554 121.458C17.1133 121.372 16.9475 121.329 16.758 121.329C16.5558 121.329 16.3782 121.378 16.2251 121.477C16.0721 121.573 15.9528 121.701 15.8671 121.859C15.7833 122.016 15.7405 122.188 15.7387 122.376V122.958C15.7387 123.202 15.7833 123.411 15.8726 123.586C15.9619 123.759 16.0867 123.892 16.247 123.985C16.4073 124.076 16.595 124.122 16.8099 124.122C16.9539 124.122 17.0841 124.102 17.2007 124.062C17.3173 124.02 17.4184 123.959 17.504 123.879C17.5897 123.799 17.6543 123.699 17.6981 123.581L18.6217 123.685C18.5634 123.929 18.4523 124.142 18.2883 124.324C18.1262 124.504 17.9185 124.645 17.6653 124.745C17.412 124.843 17.1224 124.893 16.7963 124.893ZM19.3894 124.811V119.214H20.3786V121.307H20.4196C20.4706 121.205 20.5426 121.097 20.6355 120.982C20.7284 120.865 20.8541 120.766 21.0126 120.684C21.1711 120.6 21.3733 120.558 21.6193 120.558C21.9436 120.558 22.236 120.641 22.4965 120.807C22.7588 120.971 22.9665 121.214 23.1195 121.537C23.2744 121.857 23.3518 122.251 23.3518 122.717C23.3518 123.178 23.2762 123.57 23.125 123.892C22.9738 124.215 22.7679 124.461 22.5074 124.63C22.2469 124.8 21.9518 124.884 21.622 124.884C21.3815 124.884 21.1821 124.844 21.0236 124.764C20.8651 124.684 20.7375 124.587 20.641 124.474C20.5463 124.36 20.4725 124.251 20.4196 124.149H20.3622V124.811H19.3894ZM20.3595 122.712C20.3595 122.983 20.3978 123.221 20.4743 123.425C20.5526 123.629 20.6647 123.789 20.8104 123.903C20.958 124.016 21.1365 124.073 21.346 124.073C21.5646 124.073 21.7477 124.014 21.8953 123.898C22.0429 123.779 22.154 123.618 22.2287 123.414C22.3052 123.208 22.3435 122.974 22.3435 122.712C22.3435 122.451 22.3061 122.22 22.2314 122.018C22.1567 121.816 22.0456 121.657 21.898 121.542C21.7505 121.427 21.5665 121.37 21.346 121.37C21.1347 121.37 20.9552 121.426 20.8077 121.537C20.6601 121.648 20.5481 121.804 20.4716 122.004C20.3969 122.204 20.3595 122.44 20.3595 122.712Z" fill="white"/>
<rect x="41.9453" y="28.7188" width="34.244" height="100.039" rx="9.23434" fill="white" fill-opacity="0.08"/>
<rect x="42.3301" y="29.1035" width="33.4745" height="99.2692" rx="8.84958" stroke="white" stroke-opacity="0.08" stroke-width="0.769528"/>
<path d="M52.4895 116.31H53.7302L55.3916 120.365H55.4572L57.1187 116.31H58.3593V121.906H57.3865V118.061H57.3346L55.7879 121.89H55.061L53.5143 118.053H53.4623V121.906H52.4895V116.31ZM60.4736 121.991C60.2076 121.991 59.968 121.944 59.7549 121.849C59.5436 121.752 59.3759 121.61 59.2521 121.423C59.13 121.235 59.069 121.004 59.069 120.728C59.069 120.492 59.1127 120.296 59.2001 120.141C59.2876 119.986 59.4069 119.862 59.5581 119.769C59.7093 119.676 59.8797 119.606 60.0691 119.559C60.2604 119.51 60.4581 119.474 60.6621 119.452C60.9081 119.427 61.1076 119.404 61.2606 119.384C61.4136 119.362 61.5248 119.329 61.594 119.286C61.665 119.24 61.7006 119.17 61.7006 119.075V119.059C61.7006 118.853 61.6395 118.694 61.5175 118.581C61.3954 118.468 61.2196 118.411 60.9901 118.411C60.7478 118.411 60.5556 118.464 60.4135 118.57C60.2732 118.675 60.1784 118.8 60.1293 118.944L59.2056 118.813C59.2785 118.558 59.3987 118.345 59.5663 118.173C59.7339 118 59.9389 117.871 60.1812 117.785C60.4235 117.698 60.6913 117.654 60.9846 117.654C61.1868 117.654 61.3881 117.678 61.5885 117.725C61.7889 117.773 61.972 117.851 62.1378 117.96C62.3036 118.068 62.4366 118.214 62.5368 118.4C62.6388 118.586 62.6898 118.818 62.6898 119.097V121.906H61.7388V121.33H61.706C61.6459 121.446 61.5612 121.556 61.4519 121.658C61.3444 121.758 61.2087 121.839 61.0447 121.901C60.8826 121.961 60.6922 121.991 60.4736 121.991ZM60.7305 121.264C60.929 121.264 61.1012 121.225 61.2469 121.147C61.3927 121.066 61.5047 120.961 61.5831 120.83C61.6632 120.698 61.7033 120.555 61.7033 120.401V119.906C61.6723 119.931 61.6195 119.955 61.5448 119.977C61.4719 119.999 61.3899 120.018 61.2989 120.034C61.2078 120.051 61.1176 120.065 61.0283 120.078C60.939 120.091 60.8616 120.102 60.796 120.111C60.6485 120.131 60.5164 120.164 60.3998 120.209C60.2832 120.255 60.1912 120.319 60.1238 120.401C60.0564 120.481 60.0227 120.585 60.0227 120.712C60.0227 120.894 60.0892 121.032 60.2222 121.125C60.3552 121.218 60.5246 121.264 60.7305 121.264ZM63.5306 121.906V117.709H64.4898V118.408H64.5335C64.61 118.166 64.7412 117.979 64.927 117.848C65.1147 117.715 65.3287 117.649 65.5692 117.649C65.6238 117.649 65.6849 117.651 65.7523 117.657C65.8215 117.661 65.8789 117.667 65.9244 117.676V118.586C65.8825 118.571 65.816 118.559 65.725 118.548C65.6357 118.535 65.5492 118.529 65.4653 118.529C65.285 118.529 65.1228 118.568 64.9789 118.646C64.8368 118.723 64.7248 118.829 64.6428 118.966C64.5608 119.102 64.5198 119.26 64.5198 119.439V121.906H63.5306Z" fill="white"/>
<rect x="83.875" y="25.8125" width="34.244" height="100.039" rx="9.23434" fill="white" fill-opacity="0.08"/>
<rect x="84.2598" y="26.1973" width="33.4745" height="99.2692" rx="8.84958" stroke="white" stroke-opacity="0.08" stroke-width="0.769528"/>
<path d="M95.5363 118.996H94.4542L96.4245 113.4H97.676L99.649 118.996H98.5669L97.0721 114.547H97.0284L95.5363 118.996ZM95.5719 116.802H98.5232V117.616H95.5719V116.802ZM100.189 120.57V114.799H101.161V115.493H101.219C101.27 115.391 101.342 115.282 101.435 115.168C101.528 115.051 101.653 114.952 101.812 114.87C101.97 114.786 102.173 114.744 102.418 114.744C102.743 114.744 103.035 114.827 103.296 114.993C103.558 115.157 103.766 115.4 103.919 115.722C104.074 116.043 104.151 116.436 104.151 116.903C104.151 117.364 104.075 117.755 103.924 118.078C103.773 118.4 103.567 118.646 103.307 118.816C103.046 118.985 102.751 119.07 102.421 119.07C102.181 119.07 101.981 119.03 101.823 118.95C101.664 118.869 101.537 118.773 101.44 118.66C101.345 118.545 101.272 118.437 101.219 118.335H101.178V120.57H100.189ZM101.159 116.897C101.159 117.169 101.197 117.407 101.273 117.611C101.352 117.815 101.464 117.974 101.61 118.089C101.757 118.202 101.936 118.258 102.145 118.258C102.364 118.258 102.547 118.2 102.694 118.083C102.842 117.965 102.953 117.804 103.028 117.6C103.104 117.394 103.143 117.16 103.143 116.897C103.143 116.637 103.105 116.405 103.031 116.203C102.956 116.001 102.845 115.843 102.697 115.728C102.55 115.613 102.366 115.556 102.145 115.556C101.934 115.556 101.754 115.611 101.607 115.722C101.459 115.833 101.347 115.989 101.271 116.19C101.196 116.39 101.159 116.626 101.159 116.897ZM104.844 118.996V114.799H105.803V115.498H105.847C105.924 115.256 106.055 115.069 106.241 114.938C106.428 114.805 106.642 114.739 106.883 114.739C106.937 114.739 106.998 114.741 107.066 114.747C107.135 114.75 107.193 114.757 107.238 114.766V115.676C107.196 115.661 107.13 115.649 107.039 115.638C106.949 115.625 106.863 115.618 106.779 115.618C106.599 115.618 106.436 115.658 106.293 115.736C106.15 115.812 106.038 115.919 105.956 116.056C105.874 116.192 105.833 116.35 105.833 116.528V118.996H104.844Z" fill="white"/>
<rect x="125.812" y="22.9062" width="34.244" height="100.039" rx="9.23434" fill="white" fill-opacity="0.08"/>
<rect x="126.197" y="23.291" width="33.4745" height="99.2692" rx="8.84958" stroke="white" stroke-opacity="0.08" stroke-width="0.769528"/>
<path d="M138.971 110.497H139.977V114.432C139.975 114.793 139.898 115.104 139.747 115.364C139.596 115.623 139.385 115.822 139.113 115.963C138.843 116.101 138.529 116.17 138.17 116.17C137.842 116.17 137.547 116.112 137.285 115.995C137.024 115.877 136.818 115.702 136.665 115.471C136.512 115.239 136.435 114.951 136.435 114.607H137.443C137.445 114.758 137.478 114.889 137.542 114.998C137.607 115.107 137.698 115.191 137.812 115.249C137.927 115.308 138.059 115.337 138.209 115.337C138.371 115.337 138.508 115.303 138.621 115.236C138.734 115.166 138.82 115.064 138.878 114.93C138.938 114.795 138.969 114.629 138.971 114.432V110.497ZM143.554 114.328V111.896H144.543V116.094H143.584V115.348H143.541C143.446 115.583 143.29 115.775 143.073 115.924C142.858 116.074 142.593 116.148 142.278 116.148C142.003 116.148 141.76 116.087 141.548 115.965C141.339 115.841 141.175 115.662 141.057 115.427C140.938 115.19 140.879 114.904 140.879 114.569V111.896H141.868V114.416C141.868 114.682 141.941 114.893 142.087 115.05C142.232 115.207 142.424 115.285 142.661 115.285C142.806 115.285 142.948 115.249 143.084 115.178C143.221 115.107 143.333 115.002 143.42 114.861C143.51 114.719 143.554 114.542 143.554 114.328ZM146.396 113.634V116.094H145.407V111.896H146.352V112.61H146.401C146.498 112.375 146.652 112.188 146.863 112.049C147.076 111.911 147.34 111.842 147.653 111.842C147.943 111.842 148.195 111.904 148.41 112.027C148.627 112.151 148.794 112.331 148.913 112.566C149.033 112.801 149.092 113.086 149.09 113.421V116.094H148.101V113.574C148.101 113.294 148.028 113.074 147.883 112.916C147.739 112.757 147.539 112.678 147.284 112.678C147.111 112.678 146.957 112.716 146.822 112.793C146.689 112.867 146.585 112.976 146.508 113.118C146.433 113.26 146.396 113.432 146.396 113.634Z" fill="white"/>
<g filter="url(#filter0_d_1_127)">
<rect x="167.75" y="20" width="34.244" height="100.039" rx="9.23434" fill="url(#paint0_linear_1_127)"/>
</g>
<path d="M182.448 107.591H183.453V111.526C183.451 111.887 183.375 112.197 183.224 112.458C183.072 112.717 182.861 112.916 182.59 113.056C182.32 113.195 182.006 113.264 181.647 113.264C181.319 113.264 181.024 113.206 180.761 113.089C180.501 112.971 180.294 112.796 180.141 112.564C179.988 112.333 179.912 112.045 179.912 111.701H180.92C180.922 111.852 180.955 111.982 181.018 112.092C181.084 112.201 181.174 112.285 181.289 112.343C181.404 112.401 181.536 112.431 181.685 112.431C181.847 112.431 181.985 112.397 182.098 112.329C182.211 112.26 182.296 112.158 182.355 112.023C182.415 111.889 182.446 111.723 182.448 111.526V107.591ZM187.031 111.422V108.99H188.02V113.188H187.061V112.441H187.017C186.922 112.676 186.767 112.869 186.55 113.018C186.335 113.167 186.07 113.242 185.755 113.242C185.479 113.242 185.236 113.181 185.025 113.059C184.815 112.935 184.651 112.756 184.533 112.521C184.415 112.284 184.355 111.998 184.355 111.663V108.99H185.345V111.51C185.345 111.776 185.418 111.987 185.563 112.144C185.709 112.3 185.9 112.379 186.137 112.379C186.283 112.379 186.424 112.343 186.561 112.272C186.697 112.201 186.809 112.095 186.897 111.955C186.986 111.813 187.031 111.635 187.031 111.422ZM189.873 107.591V113.188H188.883V107.591H189.873Z" fill="white"/>
<defs>
<filter id="filter0_d_1_127" x="141.586" y="-0.00773525" width="86.5719" height="152.367" filterUnits="userSpaceOnUse" color-interpolation-filters="sRGB">
<feFlood flood-opacity="0" result="BackgroundImageFix"/>
<feColorMatrix in="SourceAlpha" type="matrix" values="0 0 0 0 0 0 0 0 0 0 0 0 0 0 0 0 0 0 127 0" result="hardAlpha"/>
<feMorphology radius="4.61717" operator="erode" in="SourceAlpha" result="effect1_dropShadow_1_127"/>
<feOffset dy="6.15623"/>
<feGaussianBlur stdDeviation="15.3906"/>
<feComposite in2="hardAlpha" operator="out"/>
<feColorMatrix type="matrix" values="0 0 0 0 1 0 0 0 0 0.843137 0 0 0 0 0.45098 0 0 0 0.24 0"/>
<feBlend mode="normal" in2="BackgroundImageFix" result="effect1_dropShadow_1_127"/>
<feBlend mode="normal" in="SourceGraphic" in2="effect1_dropShadow_1_127" result="shape"/>
</filter>
<linearGradient id="paint0_linear_1_127" x1="185.064" y1="120.039" x2="216.85" y2="108.641" gradientUnits="userSpaceOnUse">
<stop stop-color="#FFC657"/>
<stop offset="1" stop-color="#FFD977"/>
</linearGradient>
</defs>
</svg>
